<svg height="60.601002" viewBox="0 0 60.601004 60.601004" width="60.601002" xmlns="http://www.w3.org/2000/svg"><path d="m4.5630022 4.5605012v51.4687528h51.4625028v-51.4687528z" fill="#fff"/><path d="m27.150503 51.406754 4.625 4.63375h-5.6l-6.05-5.985h3.6125c1.2875 0 2.5125.515 3.4125 1.35125zm-1.6125-40.92625c1.9875 0 3.6625 1.67375 3.6625 3.6675 0 1.995-1.675 3.60375-3.6625 3.60375-2 0-3.6-1.60875-3.6-3.60375 0-1.99375 1.6-3.6675 3.6-3.6675zm24.0625 33.26875-1.2875-3.41c-.575-1.41625-1.8625-2.38125-3.475-2.38125h-.575v-29.4074998h-27.925v16.2799998h3.6625l4.1875-5.2125c.8375-.965 2.125-1.60875 3.5375-1.60875h8.95c1.4125 0 2.6375.77125 3.275 1.995l2.6375 5.01875c.1375.19375.2.45125.2.7725 0 .90125-.775 1.67375-1.675 1.67375-.7125 0-1.225-.3225-1.55-.90125l-2.375-4.56875h-3.8625l2.9625 7.4.9 9.46h7.65c1.225 0 2.1875.77125 2.6375 1.80125l.8375 2.18875h-13.125c-.9625 0-1.8-.70875-1.8625-1.67375l-.9-8.30125-7.0875 14.67125c-.375.8375-1.275 1.41625-2.3125 1.41625h-3.4125l8.6875-17.95375-2.7-6.75625-2.575 3.1525c-.6375.8375-1.7375 1.41625-2.9 1.41625h-3.7875v21.235l6.05 5.985h-17.8249998v-51.4799998h51.4749998v51.4799998h-5.7875l-5.9875-5.985v-6.30625z" fill="#000"/></svg>