<svg id="Layer_2" data-name="Layer 2" xmlns="http://www.w3.org/2000/svg" viewBox="0 0 520 549">
  <defs>
    <style>
      .cls-1 {
        fill: #fff;
        stroke: #000;
        stroke-miterlimit: 10;
        stroke-width: 16px;
      }
    </style>
  </defs>
  <g id="Layer_1-2" data-name="Layer 1">
    <path class="cls-1" d="M8,80.02v271.67c0,4.5,2.51,8.62,6.52,10.67l131.74,67.7c3.59,1.84,7.86,1.76,11.37-.21l117.69-66.21c8.57-4.82,8.02-17.35-.95-21.4l-115.31-52.04c-4.3-1.94-7.06-6.22-7.06-10.94V20.02c0-8.92-9.39-14.72-17.37-10.73L14.63,69.28c-4.07,2.03-6.63,6.19-6.63,10.73Z"/>
    <g>
      <path class="cls-1" d="M314,127s-90-36-90,36v240.62s0,72,72,108c72,36,72-36,72-36h0V214.62s-11.56-66.4-54-87.62Z"/>
      <path class="cls-1" d="M368,528.98c0,8.92,9.39,14.72,17.37,10.73l120-60c4.07-2.03,6.63-6.19,6.63-10.73v-129.17c0-4.55-2.57-8.7-6.63-10.73l-60-30c-3.38-1.69-7.35-1.69-10.73,0l-117.17,58.58c-8.75,4.38-8.75,17.09,0,21.47l43.9,21.95c4.07,2.03,6.63,6.19,6.63,10.73v117.17Z"/>
      <path class="cls-1" d="M242.34,122.96l145.51-73.35s16.15-11.49,52.15,6.51c0,0,59.96,29.98,70.44,89.94,1.81,10.34-3.56,20.62-12.96,25.32l-100.75,50.38c-13.32,6.66-29.48-.28-33.71-14.56-7.15-24.12-24.58-57.85-67.02-79.07,0,0-72-36-72,36"/>
    </g>
  </g>
</svg>